<?xml version="1.0" encoding="UTF-8" standalone="no"?>
<!DOCTYPE svg PUBLIC "-//W3C//DTD SVG 1.1//EN"
 "http://www.w3.org/Graphics/SVG/1.1/DTD/svg11.dtd">
<!-- Generated by graphviz version 12.1.2 (20240928.0832)
 -->
<!-- Title: authors Pages: 1 -->
<svg width="500pt" height="787pt"
 viewBox="0.00 0.00 499.65 786.80" xmlns="http://www.w3.org/2000/svg" xmlns:xlink="http://www.w3.org/1999/xlink">
<g id="graph0" class="graph" transform="scale(1 1) rotate(0) translate(4 782.8)">
<title>authors</title>
<polygon fill="white" stroke="none" points="-4,4 -4,-782.8 495.65,-782.8 495.65,4 -4,4"/>
<!-- authors -->
<g id="node1" class="node">
<title>authors</title>
<polygon fill="#efefef" stroke="none" points="46.2,-200.2 46.2,-235.8 237.68,-235.8 237.68,-200.2 46.2,-200.2"/>
<polygon fill="none" stroke="black" points="46.2,-200.2 46.2,-235.8 237.68,-235.8 237.68,-200.2 46.2,-200.2"/>
<text text-anchor="start" x="53.2" y="-213.6" font-family="Arial Bold" font-size="18.00">authors</text>
<text text-anchor="start" x="106.19" y="-213.6" font-family="Arial" font-size="14.00">    </text>
<text text-anchor="start" x="137.31" y="-213.6" font-family="Arial" font-size="14.00" fill="#666666">[BASE TABLE]</text>
<polygon fill="none" stroke="black" points="46.2,-169.4 46.2,-200.2 237.68,-200.2 237.68,-169.4 46.2,-169.4"/>
<text text-anchor="start" x="53.2" y="-181.6" font-family="Arial" font-size="14.00">id </text>
<text text-anchor="start" x="67.99" y="-181.6" font-family="Arial" font-size="14.00" fill="#666666">[int]</text>
<polygon fill="none" stroke="black" points="46.2,-138.6 46.2,-169.4 237.68,-169.4 237.68,-138.6 46.2,-138.6"/>
<text text-anchor="start" x="53.2" y="-150.8" font-family="Arial" font-size="14.00">author_name </text>
<text text-anchor="start" x="139.59" y="-150.8" font-family="Arial" font-size="14.00" fill="#666666">[varchar(128)]</text>
<polygon fill="none" stroke="black" points="46.2,-107.8 46.2,-138.6 237.68,-138.6 237.68,-107.8 46.2,-107.8"/>
<text text-anchor="start" x="53.2" y="-120" font-family="Arial" font-size="14.00">created_at </text>
<text text-anchor="start" x="123.25" y="-120" font-family="Arial" font-size="14.00" fill="#666666">[datetime]</text>
<polygon fill="none" stroke="black" points="46.2,-77 46.2,-107.8 237.68,-107.8 237.68,-77 46.2,-77"/>
<text text-anchor="start" x="53.2" y="-89.2" font-family="Arial" font-size="14.00">updated_at </text>
<text text-anchor="start" x="127.16" y="-89.2" font-family="Arial" font-size="14.00" fill="#666666">[datetime]</text>
<polygon fill="none" stroke="black" points="46.2,-46.2 46.2,-77 237.68,-77 237.68,-46.2 46.2,-46.2"/>
<text text-anchor="start" x="53.2" y="-58.4" font-family="Arial" font-size="14.00">deleted_at </text>
<text text-anchor="start" x="122.48" y="-58.4" font-family="Arial" font-size="14.00" fill="#666666">[datetime]</text>
<polygon fill="none" stroke="black" stroke-width="3" points="44.7,-44.7 44.7,-237.3 239.18,-237.3 239.18,-44.7 44.7,-44.7"/>
</g>
<!-- books -->
<g id="node2" class="node">
<title>books</title>
<polygon fill="#efefef" stroke="none" points="51.19,-700 51.19,-735.6 232.69,-735.6 232.69,-700 51.19,-700"/>
<polygon fill="none" stroke="black" points="51.19,-700 51.19,-735.6 232.69,-735.6 232.69,-700 51.19,-700"/>
<text text-anchor="start" x="58.19" y="-713.4" font-family="Arial Bold" font-size="18.00">books</text>
<text text-anchor="start" x="101.2" y="-713.4" font-family="Arial" font-size="14.00">    </text>
<text text-anchor="start" x="132.31" y="-713.4" font-family="Arial" font-size="14.00" fill="#666666">[BASE TABLE]</text>
<polygon fill="none" stroke="black" points="51.19,-669.2 51.19,-700 232.69,-700 232.69,-669.2 51.19,-669.2"/>
<text text-anchor="start" x="58.19" y="-681.4" font-family="Arial" font-size="14.00">id </text>
<text text-anchor="start" x="72.98" y="-681.4" font-family="Arial" font-size="14.00" fill="#666666">[int]</text>
<polygon fill="none" stroke="black" points="51.19,-638.4 51.19,-669.2 232.69,-669.2 232.69,-638.4 51.19,-638.4"/>
<text text-anchor="start" x="58.19" y="-650.6" font-family="Arial" font-size="14.00">isbn </text>
<text text-anchor="start" x="87.76" y="-650.6" font-family="Arial" font-size="14.00" fill="#666666">[varchar(13)]</text>
<polygon fill="none" stroke="black" points="51.19,-607.6 51.19,-638.4 232.69,-638.4 232.69,-607.6 51.19,-607.6"/>
<text text-anchor="start" x="58.19" y="-619.8" font-family="Arial" font-size="14.00">title </text>
<text text-anchor="start" x="83.87" y="-619.8" font-family="Arial" font-size="14.00" fill="#666666">[varchar(512)]</text>
<polygon fill="none" stroke="black" points="51.19,-576.8 51.19,-607.6 232.69,-607.6 232.69,-576.8 51.19,-576.8"/>
<text text-anchor="start" x="58.19" y="-589" font-family="Arial" font-size="14.00">price </text>
<text text-anchor="start" x="92.43" y="-589" font-family="Arial" font-size="14.00" fill="#666666">[int]</text>
<polygon fill="none" stroke="black" points="51.19,-546 51.19,-576.8 232.69,-576.8 232.69,-546 51.19,-546"/>
<text text-anchor="start" x="58.19" y="-558.2" font-family="Arial" font-size="14.00">status </text>
<text text-anchor="start" x="99.43" y="-558.2" font-family="Arial" font-size="14.00" fill="#666666">[varchar(24)]</text>
<polygon fill="none" stroke="black" points="51.19,-515.2 51.19,-546 232.69,-546 232.69,-515.2 51.19,-515.2"/>
<text text-anchor="start" x="58.19" y="-527.4" font-family="Arial" font-size="14.00">author_id </text>
<text text-anchor="start" x="120.46" y="-527.4" font-family="Arial" font-size="14.00" fill="#666666">[int]</text>
<polygon fill="none" stroke="black" points="51.19,-484.4 51.19,-515.2 232.69,-515.2 232.69,-484.4 51.19,-484.4"/>
<text text-anchor="start" x="58.19" y="-496.6" font-family="Arial" font-size="14.00">publisher_id </text>
<text text-anchor="start" x="137.58" y="-496.6" font-family="Arial" font-size="14.00" fill="#666666">[int]</text>
<polygon fill="none" stroke="black" points="51.19,-453.6 51.19,-484.4 232.69,-484.4 232.69,-453.6 51.19,-453.6"/>
<text text-anchor="start" x="58.19" y="-465.8" font-family="Arial" font-size="14.00">published_at </text>
<text text-anchor="start" x="141.48" y="-465.8" font-family="Arial" font-size="14.00" fill="#666666">[datetime]</text>
<polygon fill="none" stroke="black" points="51.19,-422.8 51.19,-453.6 232.69,-453.6 232.69,-422.8 51.19,-422.8"/>
<text text-anchor="start" x="58.19" y="-435" font-family="Arial" font-size="14.00">created_at </text>
<text text-anchor="start" x="128.24" y="-435" font-family="Arial" font-size="14.00" fill="#666666">[datetime]</text>
<polygon fill="none" stroke="black" points="51.19,-392 51.19,-422.8 232.69,-422.8 232.69,-392 51.19,-392"/>
<text text-anchor="start" x="58.19" y="-404.2" font-family="Arial" font-size="14.00">updated_at </text>
<text text-anchor="start" x="132.15" y="-404.2" font-family="Arial" font-size="14.00" fill="#666666">[datetime]</text>
<polygon fill="none" stroke="black" points="51.19,-361.2 51.19,-392 232.69,-392 232.69,-361.2 51.19,-361.2"/>
<text text-anchor="start" x="58.19" y="-373.4" font-family="Arial" font-size="14.00">deleted_at </text>
<text text-anchor="start" x="127.47" y="-373.4" font-family="Arial" font-size="14.00" fill="#666666">[datetime]</text>
</g>
<!-- books&#45;&gt;authors -->
<g id="edge1" class="edge">
<title>books:author_id&#45;&gt;authors:id</title>
<path fill="none" stroke="black" d="M243.61,-528.57C310.82,-500.23 312.08,-184.8 238.68,-184.8"/>
<polygon fill="black" stroke="black" points="243.81,-528.53 233.11,-526.12 238.58,-529.6 234.34,-530.47 234.34,-530.47 234.34,-530.47 238.58,-529.6 234.92,-534.94 243.81,-528.53"/>
<text text-anchor="start" x="240.69" y="-540.6" font-family="Arial" font-size="10.00">FOREIGN KEY (author_id) REFERENCES authors (id)</text>
</g>
</g>
</svg>
