<?xml version="1.0" encoding="UTF-8" standalone="no"?>
<!DOCTYPE svg PUBLIC "-//W3C//DTD SVG 1.1//EN"
 "http://www.w3.org/Graphics/SVG/1.1/DTD/svg11.dtd">
<!-- Generated by graphviz version 12.1.2 (20240928.0832)
 -->
<!-- Title: books Pages: 1 -->
<svg width="931pt" height="787pt"
 viewBox="0.00 0.00 930.89 786.80" xmlns="http://www.w3.org/2000/svg" xmlns:xlink="http://www.w3.org/1999/xlink">
<g id="graph0" class="graph" transform="scale(1 1) rotate(0) translate(4 782.8)">
<title>books</title>
<polygon fill="white" stroke="none" points="-4,4 -4,-782.8 926.89,-782.8 926.89,4 -4,4"/>
<!-- books -->
<g id="node1" class="node">
<title>books</title>
<polygon fill="#efefef" stroke="none" points="376.7,-697 376.7,-732.6 558.19,-732.6 558.19,-697 376.7,-697"/>
<polygon fill="none" stroke="black" points="376.7,-697 376.7,-732.6 558.19,-732.6 558.19,-697 376.7,-697"/>
<text text-anchor="start" x="383.7" y="-710.4" font-family="Arial Bold" font-size="18.00">books</text>
<text text-anchor="start" x="426.7" y="-710.4" font-family="Arial" font-size="14.00">    </text>
<text text-anchor="start" x="457.82" y="-710.4" font-family="Arial" font-size="14.00" fill="#666666">[BASE TABLE]</text>
<polygon fill="none" stroke="black" points="376.7,-666.2 376.7,-697 558.19,-697 558.19,-666.2 376.7,-666.2"/>
<text text-anchor="start" x="383.7" y="-678.4" font-family="Arial" font-size="14.00">id </text>
<text text-anchor="start" x="398.48" y="-678.4" font-family="Arial" font-size="14.00" fill="#666666">[int]</text>
<polygon fill="none" stroke="black" points="376.7,-635.4 376.7,-666.2 558.19,-666.2 558.19,-635.4 376.7,-635.4"/>
<text text-anchor="start" x="383.7" y="-647.6" font-family="Arial" font-size="14.00">isbn </text>
<text text-anchor="start" x="413.27" y="-647.6" font-family="Arial" font-size="14.00" fill="#666666">[varchar(13)]</text>
<polygon fill="none" stroke="black" points="376.7,-604.6 376.7,-635.4 558.19,-635.4 558.19,-604.6 376.7,-604.6"/>
<text text-anchor="start" x="383.7" y="-616.8" font-family="Arial" font-size="14.00">title </text>
<text text-anchor="start" x="409.37" y="-616.8" font-family="Arial" font-size="14.00" fill="#666666">[varchar(512)]</text>
<polygon fill="none" stroke="black" points="376.7,-573.8 376.7,-604.6 558.19,-604.6 558.19,-573.8 376.7,-573.8"/>
<text text-anchor="start" x="383.7" y="-586" font-family="Arial" font-size="14.00">price </text>
<text text-anchor="start" x="417.93" y="-586" font-family="Arial" font-size="14.00" fill="#666666">[int]</text>
<polygon fill="none" stroke="black" points="376.7,-543 376.7,-573.8 558.19,-573.8 558.19,-543 376.7,-543"/>
<text text-anchor="start" x="383.7" y="-555.2" font-family="Arial" font-size="14.00">status </text>
<text text-anchor="start" x="424.94" y="-555.2" font-family="Arial" font-size="14.00" fill="#666666">[varchar(24)]</text>
<polygon fill="none" stroke="black" points="376.7,-512.2 376.7,-543 558.19,-543 558.19,-512.2 376.7,-512.2"/>
<text text-anchor="start" x="383.7" y="-524.4" font-family="Arial" font-size="14.00">author_id </text>
<text text-anchor="start" x="445.97" y="-524.4" font-family="Arial" font-size="14.00" fill="#666666">[int]</text>
<polygon fill="none" stroke="black" points="376.7,-481.4 376.7,-512.2 558.19,-512.2 558.19,-481.4 376.7,-481.4"/>
<text text-anchor="start" x="383.7" y="-493.6" font-family="Arial" font-size="14.00">publisher_id </text>
<text text-anchor="start" x="463.08" y="-493.6" font-family="Arial" font-size="14.00" fill="#666666">[int]</text>
<polygon fill="none" stroke="black" points="376.7,-450.6 376.7,-481.4 558.19,-481.4 558.19,-450.6 376.7,-450.6"/>
<text text-anchor="start" x="383.7" y="-462.8" font-family="Arial" font-size="14.00">published_at </text>
<text text-anchor="start" x="466.99" y="-462.8" font-family="Arial" font-size="14.00" fill="#666666">[datetime]</text>
<polygon fill="none" stroke="black" points="376.7,-419.8 376.7,-450.6 558.19,-450.6 558.19,-419.8 376.7,-419.8"/>
<text text-anchor="start" x="383.7" y="-432" font-family="Arial" font-size="14.00">created_at </text>
<text text-anchor="start" x="453.75" y="-432" font-family="Arial" font-size="14.00" fill="#666666">[datetime]</text>
<polygon fill="none" stroke="black" points="376.7,-389 376.7,-419.8 558.19,-419.8 558.19,-389 376.7,-389"/>
<text text-anchor="start" x="383.7" y="-401.2" font-family="Arial" font-size="14.00">updated_at </text>
<text text-anchor="start" x="457.66" y="-401.2" font-family="Arial" font-size="14.00" fill="#666666">[datetime]</text>
<polygon fill="none" stroke="black" points="376.7,-358.2 376.7,-389 558.19,-389 558.19,-358.2 376.7,-358.2"/>
<text text-anchor="start" x="383.7" y="-370.4" font-family="Arial" font-size="14.00">deleted_at </text>
<text text-anchor="start" x="452.98" y="-370.4" font-family="Arial" font-size="14.00" fill="#666666">[datetime]</text>
<polygon fill="none" stroke="black" stroke-width="3" points="375.2,-356.7 375.2,-734.1 559.69,-734.1 559.69,-356.7 375.2,-356.7"/>
</g>
<!-- book_status -->
<g id="node2" class="node">
<title>book_status</title>
<polygon fill="#efefef" stroke="none" points="43.2,-197.2 43.2,-232.8 267.69,-232.8 267.69,-197.2 43.2,-197.2"/>
<polygon fill="none" stroke="black" points="43.2,-197.2 43.2,-232.8 267.69,-232.8 267.69,-197.2 43.2,-197.2"/>
<text text-anchor="start" x="50.2" y="-210.6" font-family="Arial Bold" font-size="18.00">book_status</text>
<text text-anchor="start" x="136.2" y="-210.6" font-family="Arial" font-size="14.00">    </text>
<text text-anchor="start" x="167.32" y="-210.6" font-family="Arial" font-size="14.00" fill="#666666">[BASE TABLE]</text>
<polygon fill="none" stroke="black" points="43.2,-166.4 43.2,-197.2 267.69,-197.2 267.69,-166.4 43.2,-166.4"/>
<text text-anchor="start" x="50.2" y="-178.6" font-family="Arial" font-size="14.00">value </text>
<text text-anchor="start" x="87.56" y="-178.6" font-family="Arial" font-size="14.00" fill="#666666">[varchar(48)]</text>
<polygon fill="none" stroke="black" points="43.2,-135.6 43.2,-166.4 267.69,-166.4 267.69,-135.6 43.2,-135.6"/>
<text text-anchor="start" x="50.2" y="-147.8" font-family="Arial" font-size="14.00">description </text>
<text text-anchor="start" x="121.79" y="-147.8" font-family="Arial" font-size="14.00" fill="#666666">[varchar(96)]</text>
<polygon fill="none" stroke="black" points="43.2,-104.8 43.2,-135.6 267.69,-135.6 267.69,-104.8 43.2,-104.8"/>
<text text-anchor="start" x="50.2" y="-117" font-family="Arial" font-size="14.00">created_at </text>
<text text-anchor="start" x="120.25" y="-117" font-family="Arial" font-size="14.00" fill="#666666">[datetime]</text>
<polygon fill="none" stroke="black" points="43.2,-74 43.2,-104.8 267.69,-104.8 267.69,-74 43.2,-74"/>
<text text-anchor="start" x="50.2" y="-86.2" font-family="Arial" font-size="14.00">updated_at </text>
<text text-anchor="start" x="124.16" y="-86.2" font-family="Arial" font-size="14.00" fill="#666666">[datetime]</text>
<polygon fill="none" stroke="black" points="43.2,-43.2 43.2,-74 267.69,-74 267.69,-43.2 43.2,-43.2"/>
<text text-anchor="start" x="50.2" y="-55.4" font-family="Arial" font-size="14.00">deleted_at </text>
<text text-anchor="start" x="119.48" y="-55.4" font-family="Arial" font-size="14.00" fill="#666666">[datetime]</text>
</g>
<!-- books&#45;&gt;book_status -->
<g id="edge1" class="edge">
<title>books:status&#45;&gt;book_status:value</title>
<path fill="none" stroke="black" d="M365.75,-556.55C293.93,-528.14 352.12,-181.8 268.69,-181.8"/>
<polygon fill="black" stroke="black" points="365.54,-556.51 374.55,-562.76 370.78,-557.49 375.04,-558.28 375.04,-558.28 375.04,-558.28 370.78,-557.49 376.19,-553.91 365.54,-556.51"/>
<text text-anchor="start" x="103.06" y="-568.4" font-family="Arial" font-size="10.00">FOREIGN KEY (status) REFERENCES book_status (value)</text>
</g>
<!-- authors -->
<g id="node3" class="node">
<title>authors</title>
<polygon fill="#efefef" stroke="none" points="371.71,-197.2 371.71,-232.8 563.18,-232.8 563.18,-197.2 371.71,-197.2"/>
<polygon fill="none" stroke="black" points="371.71,-197.2 371.71,-232.8 563.18,-232.8 563.18,-197.2 371.71,-197.2"/>
<text text-anchor="start" x="378.71" y="-210.6" font-family="Arial Bold" font-size="18.00">authors</text>
<text text-anchor="start" x="431.7" y="-210.6" font-family="Arial" font-size="14.00">    </text>
<text text-anchor="start" x="462.81" y="-210.6" font-family="Arial" font-size="14.00" fill="#666666">[BASE TABLE]</text>
<polygon fill="none" stroke="black" points="371.71,-166.4 371.71,-197.2 563.18,-197.2 563.18,-166.4 371.71,-166.4"/>
<text text-anchor="start" x="378.71" y="-178.6" font-family="Arial" font-size="14.00">id </text>
<text text-anchor="start" x="393.49" y="-178.6" font-family="Arial" font-size="14.00" fill="#666666">[int]</text>
<polygon fill="none" stroke="black" points="371.71,-135.6 371.71,-166.4 563.18,-166.4 563.18,-135.6 371.71,-135.6"/>
<text text-anchor="start" x="378.71" y="-147.8" font-family="Arial" font-size="14.00">author_name </text>
<text text-anchor="start" x="465.1" y="-147.8" font-family="Arial" font-size="14.00" fill="#666666">[varchar(128)]</text>
<polygon fill="none" stroke="black" points="371.71,-104.8 371.71,-135.6 563.18,-135.6 563.18,-104.8 371.71,-104.8"/>
<text text-anchor="start" x="378.71" y="-117" font-family="Arial" font-size="14.00">created_at </text>
<text text-anchor="start" x="448.75" y="-117" font-family="Arial" font-size="14.00" fill="#666666">[datetime]</text>
<polygon fill="none" stroke="black" points="371.71,-74 371.71,-104.8 563.18,-104.8 563.18,-74 371.71,-74"/>
<text text-anchor="start" x="378.71" y="-86.2" font-family="Arial" font-size="14.00">updated_at </text>
<text text-anchor="start" x="452.66" y="-86.2" font-family="Arial" font-size="14.00" fill="#666666">[datetime]</text>
<polygon fill="none" stroke="black" points="371.71,-43.2 371.71,-74 563.18,-74 563.18,-43.2 371.71,-43.2"/>
<text text-anchor="start" x="378.71" y="-55.4" font-family="Arial" font-size="14.00">deleted_at </text>
<text text-anchor="start" x="447.99" y="-55.4" font-family="Arial" font-size="14.00" fill="#666666">[datetime]</text>
</g>
<!-- books&#45;&gt;authors -->
<g id="edge2" class="edge">
<title>books:author_id&#45;&gt;authors:id</title>
<path fill="none" stroke="black" d="M569.11,-525.57C636.33,-497.23 637.58,-181.8 564.18,-181.8"/>
<polygon fill="black" stroke="black" points="569.32,-525.53 558.62,-523.12 564.09,-526.6 559.85,-527.47 559.85,-527.47 559.85,-527.47 564.09,-526.6 560.42,-531.94 569.32,-525.53"/>
<text text-anchor="start" x="566.19" y="-537.6" font-family="Arial" font-size="10.00">FOREIGN KEY (author_id) REFERENCES authors (id)</text>
</g>
<!-- publishers -->
<g id="node4" class="node">
<title>publishers</title>
<polygon fill="#efefef" stroke="none" points="667.2,-197.2 667.2,-232.8 879.69,-232.8 879.69,-197.2 667.2,-197.2"/>
<polygon fill="none" stroke="black" points="667.2,-197.2 667.2,-232.8 879.69,-232.8 879.69,-197.2 667.2,-197.2"/>
<text text-anchor="start" x="674.2" y="-210.6" font-family="Arial Bold" font-size="18.00">publishers</text>
<text text-anchor="start" x="748.2" y="-210.6" font-family="Arial" font-size="14.00">    </text>
<text text-anchor="start" x="779.32" y="-210.6" font-family="Arial" font-size="14.00" fill="#666666">[BASE TABLE]</text>
<polygon fill="none" stroke="black" points="667.2,-166.4 667.2,-197.2 879.69,-197.2 879.69,-166.4 667.2,-166.4"/>
<text text-anchor="start" x="674.2" y="-178.6" font-family="Arial" font-size="14.00">id </text>
<text text-anchor="start" x="688.99" y="-178.6" font-family="Arial" font-size="14.00" fill="#666666">[int]</text>
<polygon fill="none" stroke="black" points="667.2,-135.6 667.2,-166.4 879.69,-166.4 879.69,-135.6 667.2,-135.6"/>
<text text-anchor="start" x="674.2" y="-147.8" font-family="Arial" font-size="14.00">publisher_name </text>
<text text-anchor="start" x="777.71" y="-147.8" font-family="Arial" font-size="14.00" fill="#666666">[varchar(128)]</text>
<polygon fill="none" stroke="black" points="667.2,-104.8 667.2,-135.6 879.69,-135.6 879.69,-104.8 667.2,-104.8"/>
<text text-anchor="start" x="674.2" y="-117" font-family="Arial" font-size="14.00">created_at </text>
<text text-anchor="start" x="744.25" y="-117" font-family="Arial" font-size="14.00" fill="#666666">[datetime]</text>
<polygon fill="none" stroke="black" points="667.2,-74 667.2,-104.8 879.69,-104.8 879.69,-74 667.2,-74"/>
<text text-anchor="start" x="674.2" y="-86.2" font-family="Arial" font-size="14.00">updated_at </text>
<text text-anchor="start" x="748.16" y="-86.2" font-family="Arial" font-size="14.00" fill="#666666">[datetime]</text>
<polygon fill="none" stroke="black" points="667.2,-43.2 667.2,-74 879.69,-74 879.69,-43.2 667.2,-43.2"/>
<text text-anchor="start" x="674.2" y="-55.4" font-family="Arial" font-size="14.00">deleted_at </text>
<text text-anchor="start" x="743.49" y="-55.4" font-family="Arial" font-size="14.00" fill="#666666">[datetime]</text>
</g>
<!-- books&#45;&gt;publishers -->
<g id="edge3" class="edge">
<title>books:publisher_id&#45;&gt;publishers:id</title>
<path fill="none" stroke="black" d="M569.23,-494.62C629.41,-466.79 595.88,-181.8 666.2,-181.8"/>
<polygon fill="black" stroke="black" points="569.29,-494.61 558.56,-492.33 564.08,-495.74 559.85,-496.66 559.85,-496.66 559.85,-496.66 564.08,-495.74 560.47,-501.13 569.29,-494.61"/>
<text text-anchor="start" x="566.19" y="-506.8" font-family="Arial" font-size="10.00">FOREIGN KEY (publisher_id) REFERENCES publishers (id)</text>
</g>
</g>
</svg>
